<svg width="70" height="130" fill="none" xmlns="http://www.w3.org/2000/svg"><g clip-path="url(#a)"><path d="M70 .326 0 6.798l9.38 122.528 52.921-5.567L70 .326Z" fill="#3D6EA2"/><path d="m57.385 60.845-.453-11.91c-.26-7.12-.906-12.298-1.877-15.599-1.035-3.3-2.523-6.343-4.593-9.126-2.005-2.783-4.723-4.92-8.087-6.343-3.364-1.424-7.18-2.072-11.58-1.877-6.082.258-11.063 2.006-14.88 5.113-3.817 3.172-6.21 6.796-7.246 10.745-1.035 4.013-1.423 10.291-1.23 18.835l20.962-.97-.194-5.89c-.194-5.697-.13-9.386.259-11.005.388-1.618 1.358-2.524 2.976-2.588 1.294-.065 2.135.517 2.652 1.682.453 1.23.777 3.625.906 7.185l.582 16.182c.194 6.343.13 10.356-.258 11.974-.389 1.618-1.488 2.524-3.235 2.59-2.2.129-3.43-1.684-3.623-5.373l-19.085.906.97 26.797 19.538-.906-.388-10.486c2.652 4.53 6.534 6.602 11.58 6.408 3.882-.194 7.246-1.618 10.093-4.207 2.846-2.654 4.593-5.632 5.37-8.933.711-3.365.97-7.767.84-13.204ZM34.482 96.25l-19.538.971.712 19.483 19.538-.906-.712-19.548Z" fill="#F10985"/><path d="m63.272 52.56-.453-11.91c-.259-7.12-.906-12.298-1.876-15.599-1.035-3.3-2.523-6.343-4.594-9.126-2.005-2.783-4.722-4.92-8.086-6.343-3.365-1.424-7.182-2.072-11.58-1.877-6.082.258-11.064 2.006-14.88 5.113-3.818 3.107-6.276 6.731-7.311 10.68-1.035 4.013-1.424 10.291-1.23 18.835l21.026-.906-.194-5.89c-.194-5.696-.13-9.385.26-11.003.387-1.619 1.358-2.525 2.975-2.59 1.294-.064 2.135.518 2.652 1.683.453 1.23.777 3.625.906 7.185l.582 16.182c.195 6.343.13 10.356-.258 11.974-.388 1.618-1.488 2.524-3.235 2.59-2.2.129-3.429-1.684-3.623-5.373l-19.085.906.97 26.797 19.538-.907-.388-10.485c2.653 4.53 6.534 6.602 11.58 6.408 3.882-.194 7.246-1.618 10.093-4.207 2.847-2.654 4.593-5.632 5.37-8.933.776-3.365 1.035-7.767.84-13.204ZM35.97 87.965l-19.537.971.646 19.483 19.538-.906-.647-19.548Z" fill="#5CDFC9"/></g><defs><clipPath id="a"><path fill="#fff" transform="translate(0 .326)" d="M0 0h70v129H0z"/></clipPath></defs></svg>