<svg width="70" height="130" fill="none" xmlns="http://www.w3.org/2000/svg"><g clip-path="url(#a)"><path d="M70 .85 0 7.323 9.38 129.85l52.921-5.566L70 .85Z" fill="#F10985"/><path d="m57.385 61.37-.453-11.91c-.26-7.12-.906-12.298-1.877-15.6-1.035-3.3-2.523-6.342-4.593-9.126-2.005-2.783-4.723-4.919-8.087-6.343-3.364-1.424-7.18-2.071-11.58-1.877-6.082.259-11.063 2.007-14.88 5.114-3.817 3.171-6.21 6.796-7.246 10.744-1.035 4.013-1.423 10.292-1.23 18.836l20.962-.971-.194-5.89c-.194-5.696-.13-9.386.259-11.004.388-1.618 1.358-2.524 2.976-2.59 1.294-.064 2.135.519 2.652 1.684.453 1.23.777 3.625.906 7.184l.582 16.182c.194 6.343.13 10.356-.258 11.975-.389 1.618-1.488 2.524-3.235 2.589-2.2.129-3.43-1.683-3.623-5.373L9.38 65.9l.97 26.797 19.538-.906-.388-10.486c2.652 4.531 6.534 6.602 11.58 6.408 3.882-.194 7.246-1.618 10.093-4.207 2.846-2.654 4.593-5.631 5.37-8.932.711-3.366.97-7.767.84-13.204ZM34.482 96.775l-19.538.97.712 19.483 19.538-.906-.712-19.547Z" fill="#1A1A1A"/><path d="m63.272 53.084-.453-11.91c-.259-7.12-.906-12.297-1.876-15.598-1.035-3.301-2.523-6.343-4.594-9.127-2.005-2.783-4.722-4.919-8.086-6.343-3.365-1.424-7.182-2.071-11.58-1.877-6.082.259-11.064 2.007-14.88 5.113-3.818 3.107-6.276 6.732-7.311 10.68-1.035 4.013-1.424 10.292-1.23 18.836l21.026-.906-.194-5.89c-.194-5.696-.13-9.386.26-11.004.387-1.618 1.358-2.524 2.975-2.59 1.294-.064 2.135.519 2.652 1.684.453 1.23.777 3.624.906 7.184l.582 16.182c.195 6.343.13 10.356-.258 11.974-.388 1.619-1.488 2.525-3.235 2.59-2.2.129-3.429-1.683-3.623-5.373l-19.085.906.97 26.797 19.538-.906-.388-10.486c2.653 4.531 6.534 6.602 11.58 6.408 3.882-.194 7.246-1.618 10.093-4.207 2.847-2.654 4.593-5.631 5.37-8.932.776-3.366 1.035-7.767.84-13.205ZM35.97 88.49l-19.537.97.646 19.483 19.538-.906-.647-19.547Z" fill="#FD0"/></g><defs><clipPath id="a"><path fill="#fff" transform="translate(0 .85)" d="M0 0h70v129H0z"/></clipPath></defs></svg>